# xmcd
#
# Track frame offsets: 
#        150
#        13035
#        25250
#        37520
#        50167
#        64140
#        77047
#        90600
#        103507
#        118062
#        134987
#        145225
#        156245
#        170605
#        185740
#        200057
#        215350
#        232745
#        248032
#        266062
#        281610
#        294495
#        309085
#        327772
#
# Disc length: 4604 seconds
#
# Revision: 5
# Processed by: cddbd v1.5.2PL0 Copyright (c) Steve Scherf et al.
# Submitted via: ExactAudioCopyFreeDBPlugin 1.0
#
DISCID=5e11fa18
DTITLE=Various Artist - Motown The Hits Collection
DYEAR=1995
DGENRE=Motown
TTITLE0=Stevie Wonder - My Cherie Amour
TTITLE1=Smokey Robinson and The Miracles - I Second That Emotion
TTITLE2=The Supremes - You Keep Me Hanging On
TTITLE3=The Four Tops - If I Were A Carpenter
TTITLE4=The Jackson 5 - The Love You Save
TTITLE5=Diana Ross - Surrender
TTITLE6=Jimmy Ruffin - Farewell Is A Lonely Sound
TTITLE7=Martha Reeves and The Vandellas - Jimmy Mack
TTITLE8=The Supremes - Up The Ladder To The Roof
TTITLE9=Marvin Gaye - What's Going On
TTITLE10=Edwin Starr - Stop Her On Sight (S.O.S)
TTITLE11=The Supremes - (I Know) I'm Losing You
TTITLE12=Detroit Spinners - It's A Shame
TTITLE13=Lionel Richie - Truly
TTITLE14=Smokey Robinson and The Miracles - I Don't Blame You At All
TTITLE15=Diana Ross - Theme From Mahogany (Do You Know Where You're Go
TTITLE15=ing To)
TTITLE16=R. Dean Taylor - Indiana Wants Me
TTITLE17=Michael Jackson - Got To Be There
TTITLE18=Rockwell - Somebody's Watching Me
TTITLE19=The Supremes - Someday We'll Be Together
TTITLE20=Marvin Gaye and Tammi Terrell - You're All I Need To Get By
TTITLE21=The Four Tops - Still Water (Love)
TTITLE22=Marvin Gaye - Got To Give It Up (Part 1)
TTITLE23=Diana Ross - My Old Piano
EXTD=
EXTT0=
EXTT1=
EXTT2=
EXTT3=
EXTT4=
EXTT5=
EXTT6=
EXTT7=
EXTT8=
EXTT9=
EXTT10=
EXTT11=
EXTT12=
EXTT13=
EXTT14=
EXTT15=
EXTT16=
EXTT17=
EXTT18=
EXTT19=
EXTT20=
EXTT21=
EXTT22=
EXTT23=
PLAYORDER=
